<mxfile host="app.diagrams.net" modified="2024-07-13T11:03:34.612Z" agent="Mozilla/5.0 (Windows NT 10.0; Win64; x64; rv:128.0) Gecko/20100101 Firefox/128.0" etag="l8hzOF6V6rATtvnG0BO6" version="24.6.5" type="google">
  <diagram id="R2lEEEUBdFMjLlhIrx00" name="Page-1">
    <mxGraphModel grid="1" page="1" gridSize="10" guides="1" tooltips="1" connect="1" arrows="1" fold="1" pageScale="1" pageWidth="850" pageHeight="1100" math="0" shadow="0" extFonts="Permanent Marker^https://fonts.googleapis.com/css?family=Permanent+Marker">
      <root>
        <mxCell id="0" />
        <mxCell id="1" parent="0" />
        <mxCell id="K8zAOI1VxY-VnhJ4EkcR-9" style="rounded=0;orthogonalLoop=1;jettySize=auto;html=1;endArrow=none;endFill=0;" edge="1" parent="1" source="K8zAOI1VxY-VnhJ4EkcR-1" target="K8zAOI1VxY-VnhJ4EkcR-7">
          <mxGeometry relative="1" as="geometry" />
        </mxCell>
        <mxCell id="K8zAOI1VxY-VnhJ4EkcR-10" style="rounded=0;orthogonalLoop=1;jettySize=auto;html=1;endArrow=none;endFill=0;" edge="1" parent="1" source="K8zAOI1VxY-VnhJ4EkcR-1" target="K8zAOI1VxY-VnhJ4EkcR-2">
          <mxGeometry relative="1" as="geometry" />
        </mxCell>
        <mxCell id="K8zAOI1VxY-VnhJ4EkcR-11" style="rounded=0;orthogonalLoop=1;jettySize=auto;html=1;endArrow=none;endFill=0;" edge="1" parent="1" source="K8zAOI1VxY-VnhJ4EkcR-1" target="K8zAOI1VxY-VnhJ4EkcR-3">
          <mxGeometry relative="1" as="geometry" />
        </mxCell>
        <mxCell id="K8zAOI1VxY-VnhJ4EkcR-12" style="rounded=0;orthogonalLoop=1;jettySize=auto;html=1;endArrow=none;endFill=0;" edge="1" parent="1" source="K8zAOI1VxY-VnhJ4EkcR-1" target="K8zAOI1VxY-VnhJ4EkcR-4">
          <mxGeometry relative="1" as="geometry" />
        </mxCell>
        <mxCell id="K8zAOI1VxY-VnhJ4EkcR-13" style="rounded=0;orthogonalLoop=1;jettySize=auto;html=1;endArrow=none;endFill=0;" edge="1" parent="1" source="K8zAOI1VxY-VnhJ4EkcR-1" target="K8zAOI1VxY-VnhJ4EkcR-6">
          <mxGeometry relative="1" as="geometry" />
        </mxCell>
        <mxCell id="K8zAOI1VxY-VnhJ4EkcR-1" value="HERO" style="whiteSpace=wrap;html=1;align=center;" vertex="1" parent="1">
          <mxGeometry x="425" y="420" width="100" height="40" as="geometry" />
        </mxCell>
        <mxCell id="K8zAOI1VxY-VnhJ4EkcR-2" value="&lt;u&gt;id&lt;/u&gt;" style="ellipse;whiteSpace=wrap;html=1;align=center;" vertex="1" parent="1">
          <mxGeometry x="580" y="460" width="100" height="40" as="geometry" />
        </mxCell>
        <mxCell id="K8zAOI1VxY-VnhJ4EkcR-3" value="name" style="ellipse;whiteSpace=wrap;html=1;align=center;" vertex="1" parent="1">
          <mxGeometry x="460" y="540" width="100" height="40" as="geometry" />
        </mxCell>
        <mxCell id="K8zAOI1VxY-VnhJ4EkcR-4" value="localized_name" style="ellipse;whiteSpace=wrap;html=1;align=center;" vertex="1" parent="1">
          <mxGeometry x="290" y="540" width="100" height="40" as="geometry" />
        </mxCell>
        <mxCell id="K8zAOI1VxY-VnhJ4EkcR-6" value="attack_type" style="ellipse;whiteSpace=wrap;html=1;align=center;" vertex="1" parent="1">
          <mxGeometry x="240" y="430" width="100" height="40" as="geometry" />
        </mxCell>
        <mxCell id="K8zAOI1VxY-VnhJ4EkcR-7" value="legs" style="ellipse;whiteSpace=wrap;html=1;align=center;" vertex="1" parent="1">
          <mxGeometry x="570" y="340" width="100" height="40" as="geometry" />
        </mxCell>
        <mxCell id="K8zAOI1VxY-VnhJ4EkcR-17" style="rounded=0;orthogonalLoop=1;jettySize=auto;html=1;endArrow=none;endFill=0;" edge="1" parent="1" source="K8zAOI1VxY-VnhJ4EkcR-14" target="K8zAOI1VxY-VnhJ4EkcR-15">
          <mxGeometry relative="1" as="geometry" />
        </mxCell>
        <mxCell id="K8zAOI1VxY-VnhJ4EkcR-18" style="rounded=0;orthogonalLoop=1;jettySize=auto;html=1;endArrow=none;endFill=0;" edge="1" parent="1" source="K8zAOI1VxY-VnhJ4EkcR-14" target="K8zAOI1VxY-VnhJ4EkcR-16">
          <mxGeometry relative="1" as="geometry" />
        </mxCell>
        <mxCell id="K8zAOI1VxY-VnhJ4EkcR-20" style="rounded=0;orthogonalLoop=1;jettySize=auto;html=1;endArrow=none;endFill=0;" edge="1" parent="1" source="K8zAOI1VxY-VnhJ4EkcR-14" target="K8zAOI1VxY-VnhJ4EkcR-19">
          <mxGeometry relative="1" as="geometry" />
        </mxCell>
        <mxCell id="K8zAOI1VxY-VnhJ4EkcR-23" value="m" style="edgeLabel;html=1;align=center;verticalAlign=middle;resizable=0;points=[];" connectable="0" vertex="1" parent="K8zAOI1VxY-VnhJ4EkcR-20">
          <mxGeometry x="0.5728" y="2" relative="1" as="geometry">
            <mxPoint x="6" as="offset" />
          </mxGeometry>
        </mxCell>
        <mxCell id="K8zAOI1VxY-VnhJ4EkcR-14" value="ROLE" style="whiteSpace=wrap;html=1;align=center;" vertex="1" parent="1">
          <mxGeometry x="325" y="120" width="100" height="40" as="geometry" />
        </mxCell>
        <mxCell id="K8zAOI1VxY-VnhJ4EkcR-15" value="&lt;u&gt;id&lt;/u&gt;" style="ellipse;whiteSpace=wrap;html=1;align=center;" vertex="1" parent="1">
          <mxGeometry x="300" y="20" width="100" height="40" as="geometry" />
        </mxCell>
        <mxCell id="K8zAOI1VxY-VnhJ4EkcR-16" value="name" style="ellipse;whiteSpace=wrap;html=1;align=center;" vertex="1" parent="1">
          <mxGeometry x="500" y="160" width="100" height="40" as="geometry" />
        </mxCell>
        <mxCell id="K8zAOI1VxY-VnhJ4EkcR-21" style="rounded=0;orthogonalLoop=1;jettySize=auto;html=1;endArrow=none;endFill=0;" edge="1" parent="1" source="K8zAOI1VxY-VnhJ4EkcR-19" target="K8zAOI1VxY-VnhJ4EkcR-1">
          <mxGeometry relative="1" as="geometry" />
        </mxCell>
        <mxCell id="K8zAOI1VxY-VnhJ4EkcR-22" value="m" style="edgeLabel;html=1;align=center;verticalAlign=middle;resizable=0;points=[];" connectable="0" vertex="1" parent="K8zAOI1VxY-VnhJ4EkcR-21">
          <mxGeometry x="0.686" y="1" relative="1" as="geometry">
            <mxPoint x="-28" y="-91" as="offset" />
          </mxGeometry>
        </mxCell>
        <mxCell id="K8zAOI1VxY-VnhJ4EkcR-19" value="has" style="shape=rhombus;perimeter=rhombusPerimeter;whiteSpace=wrap;html=1;align=center;" vertex="1" parent="1">
          <mxGeometry x="340" y="250" width="120" height="60" as="geometry" />
        </mxCell>
      </root>
    </mxGraphModel>
  </diagram>
</mxfile>
